<mxfile host="Electron" agent="Mozilla/5.0 (Windows NT 10.0; Win64; x64) AppleWebKit/537.36 (KHTML, like Gecko) draw.io/27.0.9 Chrome/134.0.6998.205 Electron/35.4.0 Safari/537.36" version="27.0.9">
  <diagram name="Страница — 1" id="UyNJ1ig2BbapanTwZ-ZR">
    <mxGraphModel dx="1554" dy="914" grid="1" gridSize="10" guides="1" tooltips="1" connect="1" arrows="1" fold="1" page="1" pageScale="1" pageWidth="827" pageHeight="1169" math="0" shadow="0">
      <root>
        <mxCell id="0" />
        <mxCell id="1" parent="0" />
        <mxCell id="lmffouc385ISh2cGyP90-1" value="" style="rounded=0;whiteSpace=wrap;html=1;fillColor=none;" parent="1" vertex="1">
          <mxGeometry x="120" y="280" width="160" height="400" as="geometry" />
        </mxCell>
        <mxCell id="lmffouc385ISh2cGyP90-2" value="&lt;font style=&quot;font-size: 24px;&quot;&gt;Sources&lt;/font&gt;" style="rounded=0;whiteSpace=wrap;html=1;" parent="1" vertex="1">
          <mxGeometry x="140" y="260" width="120" height="30" as="geometry" />
        </mxCell>
        <mxCell id="lmffouc385ISh2cGyP90-14" style="edgeStyle=orthogonalEdgeStyle;rounded=0;orthogonalLoop=1;jettySize=auto;html=1;entryX=0;entryY=0.5;entryDx=0;entryDy=0;" parent="1" source="lmffouc385ISh2cGyP90-3" target="lmffouc385ISh2cGyP90-13" edge="1">
          <mxGeometry relative="1" as="geometry" />
        </mxCell>
        <mxCell id="lmffouc385ISh2cGyP90-17" style="edgeStyle=orthogonalEdgeStyle;rounded=0;orthogonalLoop=1;jettySize=auto;html=1;entryX=0;entryY=0.5;entryDx=0;entryDy=0;" parent="1" source="lmffouc385ISh2cGyP90-3" target="lmffouc385ISh2cGyP90-15" edge="1">
          <mxGeometry relative="1" as="geometry" />
        </mxCell>
        <mxCell id="lmffouc385ISh2cGyP90-18" style="edgeStyle=orthogonalEdgeStyle;rounded=0;orthogonalLoop=1;jettySize=auto;html=1;entryX=0;entryY=0.5;entryDx=0;entryDy=0;" parent="1" source="lmffouc385ISh2cGyP90-3" target="lmffouc385ISh2cGyP90-16" edge="1">
          <mxGeometry relative="1" as="geometry" />
        </mxCell>
        <mxCell id="lmffouc385ISh2cGyP90-3" value="" style="image;aspect=fixed;html=1;points=[];align=center;fontSize=12;image=img/lib/azure2/general/Folder_Blank.svg;" parent="1" vertex="1">
          <mxGeometry x="158.5" y="340" width="69" height="56.00000000000001" as="geometry" />
        </mxCell>
        <mxCell id="lmffouc385ISh2cGyP90-4" value="" style="verticalLabelPosition=bottom;html=1;verticalAlign=top;align=center;strokeColor=none;fillColor=#00BEF2;shape=mxgraph.azure.file_2;pointerEvents=1;" parent="1" vertex="1">
          <mxGeometry x="212.5" y="362" width="30" height="34" as="geometry" />
        </mxCell>
        <mxCell id="lmffouc385ISh2cGyP90-5" value="&lt;b&gt;CRM&lt;/b&gt;" style="text;html=1;align=center;verticalAlign=middle;whiteSpace=wrap;rounded=0;" parent="1" vertex="1">
          <mxGeometry x="163" y="390" width="60" height="30" as="geometry" />
        </mxCell>
        <mxCell id="lmffouc385ISh2cGyP90-22" style="edgeStyle=orthogonalEdgeStyle;rounded=0;orthogonalLoop=1;jettySize=auto;html=1;entryX=0;entryY=0.5;entryDx=0;entryDy=0;" parent="1" source="lmffouc385ISh2cGyP90-6" target="lmffouc385ISh2cGyP90-19" edge="1">
          <mxGeometry relative="1" as="geometry" />
        </mxCell>
        <mxCell id="lmffouc385ISh2cGyP90-23" style="edgeStyle=orthogonalEdgeStyle;rounded=0;orthogonalLoop=1;jettySize=auto;html=1;entryX=0;entryY=0.5;entryDx=0;entryDy=0;" parent="1" source="lmffouc385ISh2cGyP90-6" target="lmffouc385ISh2cGyP90-20" edge="1">
          <mxGeometry relative="1" as="geometry" />
        </mxCell>
        <mxCell id="lmffouc385ISh2cGyP90-24" style="edgeStyle=orthogonalEdgeStyle;rounded=0;orthogonalLoop=1;jettySize=auto;html=1;entryX=0;entryY=0.5;entryDx=0;entryDy=0;" parent="1" source="lmffouc385ISh2cGyP90-6" target="lmffouc385ISh2cGyP90-21" edge="1">
          <mxGeometry relative="1" as="geometry" />
        </mxCell>
        <mxCell id="lmffouc385ISh2cGyP90-6" value="" style="image;aspect=fixed;html=1;points=[];align=center;fontSize=12;image=img/lib/azure2/general/Folder_Blank.svg;" parent="1" vertex="1">
          <mxGeometry x="158.5" y="560" width="69" height="56.00000000000001" as="geometry" />
        </mxCell>
        <mxCell id="lmffouc385ISh2cGyP90-7" value="" style="verticalLabelPosition=bottom;html=1;verticalAlign=top;align=center;strokeColor=none;fillColor=#00BEF2;shape=mxgraph.azure.file_2;pointerEvents=1;" parent="1" vertex="1">
          <mxGeometry x="212.5" y="582" width="30" height="34" as="geometry" />
        </mxCell>
        <mxCell id="lmffouc385ISh2cGyP90-8" value="&lt;b&gt;ERP&lt;/b&gt;" style="text;html=1;align=center;verticalAlign=middle;whiteSpace=wrap;rounded=0;" parent="1" vertex="1">
          <mxGeometry x="163" y="610" width="60" height="30" as="geometry" />
        </mxCell>
        <mxCell id="lmffouc385ISh2cGyP90-10" value="" style="rounded=0;whiteSpace=wrap;html=1;fillColor=none;strokeColor=#6D1F00;fontColor=#ffffff;" parent="1" vertex="1">
          <mxGeometry x="360" y="280" width="240" height="400" as="geometry" />
        </mxCell>
        <mxCell id="lmffouc385ISh2cGyP90-11" value="&lt;font style=&quot;font-size: 24px;&quot;&gt;Bronze&lt;/font&gt;" style="rounded=0;whiteSpace=wrap;html=1;fillColor=#a0522d;strokeColor=#6D1F00;fontColor=#ffffff;" parent="1" vertex="1">
          <mxGeometry x="420" y="260" width="120" height="30" as="geometry" />
        </mxCell>
        <mxCell id="kmleNOYeu_MIawI82MTB-9" style="edgeStyle=orthogonalEdgeStyle;rounded=0;orthogonalLoop=1;jettySize=auto;html=1;exitX=1;exitY=0.5;exitDx=0;exitDy=0;entryX=0;entryY=0.5;entryDx=0;entryDy=0;" parent="1" source="lmffouc385ISh2cGyP90-13" target="kmleNOYeu_MIawI82MTB-3" edge="1">
          <mxGeometry relative="1" as="geometry" />
        </mxCell>
        <mxCell id="lmffouc385ISh2cGyP90-13" value="crm_cust_info" style="rounded=0;whiteSpace=wrap;html=1;fillColor=#a0522d;strokeColor=#6D1F00;fontSize=20;fontColor=#ffffff;" parent="1" vertex="1">
          <mxGeometry x="407.5" y="321.5" width="145" height="30" as="geometry" />
        </mxCell>
        <mxCell id="kmleNOYeu_MIawI82MTB-10" style="edgeStyle=orthogonalEdgeStyle;rounded=0;orthogonalLoop=1;jettySize=auto;html=1;exitX=1;exitY=0.5;exitDx=0;exitDy=0;entryX=0;entryY=0.5;entryDx=0;entryDy=0;" parent="1" source="lmffouc385ISh2cGyP90-15" target="kmleNOYeu_MIawI82MTB-4" edge="1">
          <mxGeometry relative="1" as="geometry" />
        </mxCell>
        <mxCell id="lmffouc385ISh2cGyP90-15" value="crm_prd_info" style="rounded=0;whiteSpace=wrap;html=1;fillColor=#a0522d;strokeColor=#6D1F00;fontSize=20;fontColor=#ffffff;" parent="1" vertex="1">
          <mxGeometry x="407.5" y="361.5" width="145" height="30" as="geometry" />
        </mxCell>
        <mxCell id="kmleNOYeu_MIawI82MTB-11" style="edgeStyle=orthogonalEdgeStyle;rounded=0;orthogonalLoop=1;jettySize=auto;html=1;exitX=1;exitY=0.5;exitDx=0;exitDy=0;entryX=0;entryY=0.5;entryDx=0;entryDy=0;" parent="1" source="lmffouc385ISh2cGyP90-16" target="kmleNOYeu_MIawI82MTB-5" edge="1">
          <mxGeometry relative="1" as="geometry" />
        </mxCell>
        <mxCell id="lmffouc385ISh2cGyP90-16" value="crm_sales_details" style="rounded=0;whiteSpace=wrap;html=1;fillColor=#a0522d;strokeColor=#6D1F00;fontSize=20;fontColor=#ffffff;" parent="1" vertex="1">
          <mxGeometry x="390" y="401.5" width="180" height="30" as="geometry" />
        </mxCell>
        <mxCell id="kmleNOYeu_MIawI82MTB-12" style="edgeStyle=orthogonalEdgeStyle;rounded=0;orthogonalLoop=1;jettySize=auto;html=1;exitX=1;exitY=0.5;exitDx=0;exitDy=0;entryX=0;entryY=0.5;entryDx=0;entryDy=0;" parent="1" source="lmffouc385ISh2cGyP90-19" target="kmleNOYeu_MIawI82MTB-6" edge="1">
          <mxGeometry relative="1" as="geometry" />
        </mxCell>
        <mxCell id="lmffouc385ISh2cGyP90-19" value="erp_cust_az12" style="rounded=0;whiteSpace=wrap;html=1;fillColor=#a0522d;strokeColor=#6D1F00;fontSize=20;align=center;fontColor=#ffffff;" parent="1" vertex="1">
          <mxGeometry x="390" y="528.5" width="180" height="30" as="geometry" />
        </mxCell>
        <mxCell id="kmleNOYeu_MIawI82MTB-13" style="edgeStyle=orthogonalEdgeStyle;rounded=0;orthogonalLoop=1;jettySize=auto;html=1;exitX=1;exitY=0.5;exitDx=0;exitDy=0;entryX=0;entryY=0.5;entryDx=0;entryDy=0;" parent="1" source="lmffouc385ISh2cGyP90-20" target="kmleNOYeu_MIawI82MTB-7" edge="1">
          <mxGeometry relative="1" as="geometry" />
        </mxCell>
        <mxCell id="lmffouc385ISh2cGyP90-20" value="erp_loc_a101" style="rounded=0;whiteSpace=wrap;html=1;fillColor=#a0522d;strokeColor=#6D1F00;fontSize=20;fontColor=#ffffff;" parent="1" vertex="1">
          <mxGeometry x="407.5" y="568.5" width="145" height="30" as="geometry" />
        </mxCell>
        <mxCell id="kmleNOYeu_MIawI82MTB-14" style="edgeStyle=orthogonalEdgeStyle;rounded=0;orthogonalLoop=1;jettySize=auto;html=1;exitX=1;exitY=0.5;exitDx=0;exitDy=0;entryX=0;entryY=0.5;entryDx=0;entryDy=0;" parent="1" source="lmffouc385ISh2cGyP90-21" target="kmleNOYeu_MIawI82MTB-8" edge="1">
          <mxGeometry relative="1" as="geometry" />
        </mxCell>
        <mxCell id="lmffouc385ISh2cGyP90-21" value="erp_px_cat_g1v2" style="rounded=0;whiteSpace=wrap;html=1;fillColor=#a0522d;strokeColor=#6D1F00;fontSize=20;fontColor=#ffffff;" parent="1" vertex="1">
          <mxGeometry x="390" y="610" width="182.5" height="30" as="geometry" />
        </mxCell>
        <mxCell id="kmleNOYeu_MIawI82MTB-1" value="" style="rounded=0;whiteSpace=wrap;html=1;fillColor=none;strokeColor=#314354;fontColor=#ffffff;" parent="1" vertex="1">
          <mxGeometry x="680" y="280" width="240" height="400" as="geometry" />
        </mxCell>
        <mxCell id="kmleNOYeu_MIawI82MTB-2" value="&lt;font style=&quot;font-size: 24px;&quot;&gt;Silver&lt;/font&gt;" style="rounded=0;whiteSpace=wrap;html=1;fillColor=#647687;strokeColor=#314354;fontColor=#ffffff;" parent="1" vertex="1">
          <mxGeometry x="740" y="260" width="120" height="30" as="geometry" />
        </mxCell>
        <mxCell id="kmleNOYeu_MIawI82MTB-3" value="crm_cust_info" style="rounded=0;whiteSpace=wrap;html=1;fillColor=#647687;strokeColor=#314354;fontSize=20;fontColor=#ffffff;" parent="1" vertex="1">
          <mxGeometry x="727.5" y="321.5" width="145" height="30" as="geometry" />
        </mxCell>
        <mxCell id="kmleNOYeu_MIawI82MTB-4" value="crm_prd_info" style="rounded=0;whiteSpace=wrap;html=1;fillColor=#647687;strokeColor=#314354;fontSize=20;fontColor=#ffffff;" parent="1" vertex="1">
          <mxGeometry x="727.5" y="361.5" width="145" height="30" as="geometry" />
        </mxCell>
        <mxCell id="kmleNOYeu_MIawI82MTB-5" value="crm_sales_details" style="rounded=0;whiteSpace=wrap;html=1;fillColor=#647687;strokeColor=#314354;fontSize=20;fontColor=#ffffff;" parent="1" vertex="1">
          <mxGeometry x="710" y="401.5" width="180" height="30" as="geometry" />
        </mxCell>
        <mxCell id="kmleNOYeu_MIawI82MTB-6" value="erp_cust_az12" style="rounded=0;whiteSpace=wrap;html=1;fillColor=#647687;strokeColor=#314354;fontSize=20;align=center;fontColor=#ffffff;" parent="1" vertex="1">
          <mxGeometry x="710" y="528.5" width="180" height="30" as="geometry" />
        </mxCell>
        <mxCell id="kmleNOYeu_MIawI82MTB-7" value="erp_loc_a101" style="rounded=0;whiteSpace=wrap;html=1;fillColor=#647687;strokeColor=#314354;fontSize=20;fontColor=#ffffff;" parent="1" vertex="1">
          <mxGeometry x="727.5" y="568.5" width="145" height="30" as="geometry" />
        </mxCell>
        <mxCell id="kmleNOYeu_MIawI82MTB-8" value="erp_px_cat_g1v2" style="rounded=0;whiteSpace=wrap;html=1;fillColor=#647687;strokeColor=#314354;fontSize=20;fontColor=#ffffff;" parent="1" vertex="1">
          <mxGeometry x="710" y="610" width="182.5" height="30" as="geometry" />
        </mxCell>
        <mxCell id="bCqZiAwprhJZqcD6xbFw-1" value="" style="rounded=0;whiteSpace=wrap;html=1;fillColor=none;strokeColor=#B09500;fontColor=#000000;" vertex="1" parent="1">
          <mxGeometry x="1001" y="280" width="240" height="400" as="geometry" />
        </mxCell>
        <mxCell id="bCqZiAwprhJZqcD6xbFw-2" value="&lt;font style=&quot;font-size: 24px;&quot;&gt;Gold&lt;/font&gt;" style="rounded=0;whiteSpace=wrap;html=1;fillColor=#e3c800;strokeColor=#B09500;fontColor=#000000;" vertex="1" parent="1">
          <mxGeometry x="1061" y="260" width="120" height="30" as="geometry" />
        </mxCell>
        <mxCell id="bCqZiAwprhJZqcD6xbFw-3" value="fact_sales" style="rounded=0;whiteSpace=wrap;html=1;fillColor=#e3c800;strokeColor=#B09500;fontSize=20;fontColor=#000000;" vertex="1" parent="1">
          <mxGeometry x="1048.5" y="340" width="145" height="30" as="geometry" />
        </mxCell>
        <mxCell id="bCqZiAwprhJZqcD6xbFw-4" value="dim_customers" style="rounded=0;whiteSpace=wrap;html=1;fillColor=#e3c800;strokeColor=#B09500;fontSize=20;fontColor=#000000;" vertex="1" parent="1">
          <mxGeometry x="1048.5" y="465" width="145" height="30" as="geometry" />
        </mxCell>
        <mxCell id="bCqZiAwprhJZqcD6xbFw-5" value="dim_products" style="rounded=0;whiteSpace=wrap;html=1;fillColor=#e3c800;strokeColor=#B09500;fontSize=20;fontColor=#000000;" vertex="1" parent="1">
          <mxGeometry x="1031" y="586" width="180" height="30" as="geometry" />
        </mxCell>
        <mxCell id="bCqZiAwprhJZqcD6xbFw-11" value="" style="endArrow=classic;html=1;rounded=0;exitX=1;exitY=0.5;exitDx=0;exitDy=0;entryX=0;entryY=0.5;entryDx=0;entryDy=0;jumpStyle=gap;" edge="1" parent="1" source="kmleNOYeu_MIawI82MTB-5" target="bCqZiAwprhJZqcD6xbFw-3">
          <mxGeometry width="50" height="50" relative="1" as="geometry">
            <mxPoint x="930" y="410" as="sourcePoint" />
            <mxPoint x="980" y="360" as="targetPoint" />
          </mxGeometry>
        </mxCell>
        <mxCell id="bCqZiAwprhJZqcD6xbFw-15" value="" style="edgeStyle=none;orthogonalLoop=1;jettySize=auto;html=1;rounded=0;exitX=1;exitY=0.5;exitDx=0;exitDy=0;entryX=0;entryY=0.5;entryDx=0;entryDy=0;jumpStyle=gap;" edge="1" parent="1" source="kmleNOYeu_MIawI82MTB-3" target="bCqZiAwprhJZqcD6xbFw-4">
          <mxGeometry width="100" relative="1" as="geometry">
            <mxPoint x="910" y="470" as="sourcePoint" />
            <mxPoint x="1010" y="470" as="targetPoint" />
            <Array as="points" />
          </mxGeometry>
        </mxCell>
        <mxCell id="bCqZiAwprhJZqcD6xbFw-17" value="" style="edgeStyle=none;orthogonalLoop=1;jettySize=auto;html=1;rounded=0;exitX=1;exitY=0.5;exitDx=0;exitDy=0;entryX=0;entryY=0.5;entryDx=0;entryDy=0;jumpStyle=gap;" edge="1" parent="1" source="kmleNOYeu_MIawI82MTB-6" target="bCqZiAwprhJZqcD6xbFw-4">
          <mxGeometry width="100" relative="1" as="geometry">
            <mxPoint x="910" y="530" as="sourcePoint" />
            <mxPoint x="1010" y="530" as="targetPoint" />
            <Array as="points" />
          </mxGeometry>
        </mxCell>
        <mxCell id="bCqZiAwprhJZqcD6xbFw-18" value="" style="edgeStyle=none;orthogonalLoop=1;jettySize=auto;html=1;rounded=0;exitX=1;exitY=0.5;exitDx=0;exitDy=0;entryX=0;entryY=0.5;entryDx=0;entryDy=0;jumpStyle=gap;" edge="1" parent="1" source="kmleNOYeu_MIawI82MTB-7" target="bCqZiAwprhJZqcD6xbFw-4">
          <mxGeometry width="100" relative="1" as="geometry">
            <mxPoint x="900" y="580" as="sourcePoint" />
            <mxPoint x="1000" y="580" as="targetPoint" />
            <Array as="points" />
          </mxGeometry>
        </mxCell>
        <mxCell id="bCqZiAwprhJZqcD6xbFw-19" value="" style="edgeStyle=none;orthogonalLoop=1;jettySize=auto;html=1;rounded=0;exitX=1;exitY=0.5;exitDx=0;exitDy=0;entryX=0;entryY=0.5;entryDx=0;entryDy=0;jumpStyle=gap;" edge="1" parent="1" source="kmleNOYeu_MIawI82MTB-8" target="bCqZiAwprhJZqcD6xbFw-5">
          <mxGeometry width="100" relative="1" as="geometry">
            <mxPoint x="930" y="610" as="sourcePoint" />
            <mxPoint x="1030" y="610" as="targetPoint" />
            <Array as="points" />
          </mxGeometry>
        </mxCell>
        <mxCell id="bCqZiAwprhJZqcD6xbFw-20" value="" style="edgeStyle=none;orthogonalLoop=1;jettySize=auto;html=1;rounded=0;exitX=1;exitY=0.5;exitDx=0;exitDy=0;entryX=0;entryY=0.5;entryDx=0;entryDy=0;jumpStyle=gap;" edge="1" parent="1" source="kmleNOYeu_MIawI82MTB-4" target="bCqZiAwprhJZqcD6xbFw-5">
          <mxGeometry width="100" relative="1" as="geometry">
            <mxPoint x="940" y="670" as="sourcePoint" />
            <mxPoint x="1040" y="670" as="targetPoint" />
            <Array as="points" />
          </mxGeometry>
        </mxCell>
      </root>
    </mxGraphModel>
  </diagram>
</mxfile>
